# xmcd CD database file
#
# Track frame offsets:
#	150
#	16690
#	33259
#	46612
#	73434
#	92429
#	113963
#	137074
#	159425
#	183598
#
# Disc length: 3117 seconds
#
# Revision: 0
# Processed by: cddbd v1.5PL3 Copyright (c) Steve Scherf et al.
# Submitted via: CDex 1.51
#
DISCID=7a0c2b0a
DTITLE=The Flood - The Flood
DYEAR=2003
DGENRE=Country
TTITLE0=Felt Like Mine
TTITLE1=Nobody On My Side
TTITLE2=You Might Be There
TTITLE3=Sweet Killer
TTITLE4=Wayside
TTITLE5=Paul Kelly's Blues
TTITLE6=Queensland
TTITLE7=House On The Hill
TTITLE8=Bound To Fall
TTITLE9=No Highway
EXTD=YEAR: 2003
EXTT0=
EXTT1=
EXTT2=
EXTT3=
EXTT4=
EXTT5=
EXTT6=
EXTT7=
EXTT8=
EXTT9=
PLAYORDER=
